<svg width="125" height="21" viewBox="0 0 125 21" fill="none" xmlns="http://www.w3.org/2000/svg">
<path d="M123.721 7.37857L118.015 6.54665L115.464 1.37541C115.007 0.453648 113.683 0.441931 113.222 1.37541L110.672 6.54665L104.966 7.37857C103.942 7.52699 103.532 8.78856 104.274 9.51112L108.403 13.5341L107.426 19.217C107.251 20.2442 108.332 21.0136 109.239 20.5332L114.343 17.8499L119.448 20.5332C120.354 21.0097 121.436 20.2442 121.261 19.217L120.284 13.5341L124.413 9.51112C125.155 8.78856 124.745 7.52699 123.721 7.37857ZM118.273 12.8779L119.198 18.2835L114.343 15.733L109.489 18.2835L110.414 12.8779L106.485 9.05024L111.914 8.26128L114.343 3.34001L116.773 8.26128L122.202 9.05024L118.273 12.8779Z" fill="#FFD150"/>
<path d="M87.327 1.37541L84.7765 6.54665L79.0702 7.37857C78.0469 7.52699 77.6368 8.78856 78.3789 9.51112L82.5073 13.5341L81.5308 19.217C81.3551 20.2442 82.437 21.0136 83.3431 20.5332L88.4479 17.8499L93.5528 20.5332C94.4589 21.0097 95.5408 20.2442 95.3651 19.217L94.3886 13.5341L98.517 9.51112C99.2591 8.78856 98.849 7.52699 97.8257 7.37857L92.1194 6.54665L89.5689 1.37541C89.1119 0.453648 87.7879 0.441931 87.327 1.37541Z" fill="#FFD150"/>
<path d="M61.327 1.37541L58.7765 6.54665L53.0702 7.37857C52.0469 7.52699 51.6368 8.78856 52.3789 9.51112L56.5073 13.5341L55.5308 19.217C55.3551 20.2442 56.437 21.0136 57.3431 20.5332L62.4479 17.8499L67.5528 20.5332C68.4589 21.0097 69.5408 20.2442 69.3651 19.217L68.3886 13.5341L72.517 9.51112C73.2591 8.78856 72.849 7.52699 71.8257 7.37857L66.1194 6.54665L63.5689 1.37541C63.1119 0.453648 61.7879 0.441931 61.327 1.37541Z" fill="#FFD150"/>
<path d="M35.327 1.37541L32.7765 6.54665L27.0702 7.37857C26.0469 7.52699 25.6368 8.78856 26.3789 9.51112L30.5073 13.5341L29.5308 19.217C29.3551 20.2442 30.437 21.0136 31.3431 20.5332L36.4479 17.8499L41.5528 20.5332C42.4589 21.0097 43.5408 20.2442 43.3651 19.217L42.3886 13.5341L46.517 9.51112C47.2591 8.78856 46.849 7.52699 45.8257 7.37857L40.1194 6.54665L37.5689 1.37541C37.1119 0.453648 35.7879 0.441931 35.327 1.37541Z" fill="#FFD150"/>
<path d="M9.32699 1.37541L6.77652 6.54665L1.0702 7.37857C0.0468878 7.52699 -0.363218 8.78856 0.378878 9.51112L4.50727 13.5341L3.53083 19.217C3.35507 20.2442 4.43697 21.0136 5.34311 20.5332L10.4479 17.8499L15.5528 20.5332C16.4589 21.0097 17.5408 20.2442 17.3651 19.217L16.3886 13.5341L20.517 9.51112C21.2591 8.78856 20.849 7.52699 19.8257 7.37857L14.1194 6.54665L11.5689 1.37541C11.1119 0.453648 9.78787 0.441931 9.32699 1.37541Z" fill="#FFD150"/>
</svg>
